<!-- Seventh-day Adventist logo SVG, white fill for dark footer background -->
<svg xmlns="http://www.w3.org/2000/svg" viewBox="0 0 225 225" width="32" height="32" fill="white">
  <g>
    <path d="M112.5,0C50.4,0,0,50.4,0,112.5S50.4,225,112.5,225S225,174.6,225,112.5S174.6,0,112.5,0z M112.5,215.6
      c-56.8,0-103.1-46.3-103.1-103.1S55.7,9.4,112.5,9.4s103.1,46.3,103.1,103.1S169.3,215.6,112.5,215.6z"/>
    <path d="M112.5,36.6c-21.7,0-39.3,17.6-39.3,39.3c0,13.2,6.6,25.1,17.1,32.1c-2.2,2.7-3.5,6.1-3.5,9.8c0,8.5,6.9,15.4,15.4,15.4
      s15.4-6.9,15.4-15.4c0-3.7-1.3-7.1-3.5-9.8c10.5-7,17.1-18.9,17.1-32.1C151.8,54.2,134.2,36.6,112.5,36.6z"/>
    <path d="M112.5,186.2c-20.7,0-39.7-8.1-54.2-21.3c2.2-7.2,8.8-12.5,16.7-12.5h75c7.9,0,14.5,5.3,16.7,12.5
      C152.2,178.1,133.2,186.2,112.5,186.2z"/>
  </g>
</svg>
